<svg
	preserveAspectRatio="xMidYMid meet"
	xmlns="http://www.w3.org/2000/svg"
	width="32"
	height="32"
	viewBox="0 0 32 32"
	aria-hidden="true"
	focusable="false"
>
	<path fill="white" d="M27 16.8V16v-.8l1.9-1.7c.7-.6.9-1.7.4-2.5l-2.4-4c-.4-.6-1-1-1.7-1-.2 0-.4 0-.6.1l-2.4.8c-.4-.3-.9-.5-1.3-.8l-.5-2.5c-.2-1-1-1.6-2-1.6h-4.7c-1 0-1.8.7-2 1.6l-.5 2.5c-.5.2-.9.5-1.3.8l-2.5-.8C7.2 6 7 6 6.8 6c-.7 0-1.4.4-1.7 1l-2.4 4c-.5.8-.3 1.9.4 2.5L5 15.2v1.6l-1.9 1.7c-.7.6-.9 1.7-.4 2.5l2.4 4c.4.6 1 1 1.7 1 .2 0 .4 0 .6-.1l2.4-.8c.4.3.9.5 1.3.8l.5 2.5c.2 1 1 1.6 2 1.6h4.7c1 0 1.8-.7 2-1.6l.5-2.5c.5-.2.9-.5 1.3-.8l2.4.8c.2.1.4.1.6.1.7 0 1.4-.4 1.7-1l2.3-4c.5-.8.3-1.9-.4-2.5L27 16.8zm-7-.6c-.1 2.2-1.8 3.9-4 3.8h-.2c-2.2-.1-3.9-1.8-3.8-4v-.2c.1-2.2 1.8-3.9 4-3.8h.2c2.2.1 3.9 1.8 3.8 4v.2z"/>
</svg>
